PathFileType	4	(X/Y/Z)	Patient4_TMGait_0pt4_01_left_37.trc.trc
DataRate	CameraRate	NumFrames	NumMarkers	Units	OrigDataRate	OrigDataStartFrame	OrigNumFrames
73.684210526316	73.684210526316	5	33	mm	73.684210526316	124	       141
Frame#	Time	Sacral			L.Shoulder			Chest			R.Shoulder			Neck			R.ASIS			L.ASIS			R.Thigh.Superior			R.Thigh.Lateral			R.Thigh.Inferior			R.Patella			L.Thigh.Superior			L.Thigh.Lateral			L.Thigh.Inferior			L.Patella			L.Shank.Superior			L.Shank.Lateral			L.Shank.Inferior			R.Shank.Superior			R.Shank.Lateral			R.Shank.Inferior			R.Heel			R.Midfoot.Superior			R.Midfoot.Lateral			R.Toe			L.Heel			L.Midfoot.Lateral			L.Midfoot.Superior			L.Toe			L.Elbow			L.Wrist			R.Elbow			R.Wrist			
		X1	Y1	Z1	X2	Y2	Z2	X3	Y3	Z3	X4	Y4	Z4	X5	Y5	Z5	X6	Y6	Z6	X7	Y7	Z7	X8	Y8	Z8	X9	Y9	Z9	X10	Y10	Z10	X11	Y11	Z11	X12	Y12	Z12	X13	Y13	Z13	X14	Y14	Z14	X15	Y15	Z15	X16	Y16	Z16	X17	Y17	Z17	X18	Y18	Z18	X19	Y19	Z19	X20	Y20	Z20	X21	Y21	Z21	X22	Y22	Z22	X23	Y23	Z23	X24	Y24	Z24	X25	Y25	Z25	X26	Y26	Z26	X27	Y27	Z27	X28	Y28	Z28	X29	Y29	Z29	X30	Y30	Z30	X31	Y31	Z31	X32	Y32	Z32	X33	Y33	Z33	

124	47.869285714286	814.217235011900	1001.851689892304	541.322188599753	946.374244758107	1427.255492462103	325.639292187434	1082.473156106640	1363.195997557304	461.507256689678	1037.880248790740	1438.312365928702	648.582679274300	963.370894479939	1490.382773399837	479.314540835476	1058.481460056782	934.415741196671	614.532081621795	997.395984247635	958.012381795450	345.081349107460	1053.056438257118	722.029652414499	587.023570372240	954.321129014034	626.487717749970	657.168310944454	1007.667970735136	562.402859257145	572.212699679539	989.082767298903	478.043852764439	578.201795958376	1075.605882684860	766.800479349114	369.133845486871	1008.552919116761	638.480122946771	305.462700145145	1113.757184759840	576.503239639998	358.777678248360	1132.506090301202	508.593723369369	359.109774299917	1111.425151790440	435.531871377865	349.905816598744	1032.026918614190	312.382246977472	301.607108696868	1109.853630599165	205.144798479588	354.277121816605	950.092679424673	394.298956654605	586.875603539972	868.704643053871	299.685717482202	651.802893835586	895.028360526862	201.094643998819	585.353452338341	746.169234568355	43.553506513156	553.337933292253	916.079105311988	95.590382086477	594.690121718871	826.635958968409	36.237249015927	631.014714098055	1035.359269578498	41.421526272003	626.672434442260	1008.419257944174	41.375714109581	395.839011166442	1079.571681996866	37.999850953767	313.345807940849	1161.869279207992	101.932318208388	334.536366705742	1289.412141229688	53.557421572656	302.894852243505	828.641358608393	1085.186769308011	255.179610717583	826.871573806696	824.700725068973	252.693977848529	1186.197231121673	1130.107421427771	760.068624701742	1406.348819641277	1208.007951975443	668.136631693900	
125	47.882857142857	814.962292343779	1001.271993010458	538.700415478897	947.199135956011	1426.382861444653	322.834440921799	1083.002242878081	1362.899860477759	459.264436958171	1037.520812744923	1438.065438418601	646.160463758486	963.575328078910	1489.833408341510	476.592848097255	1059.434748879558	933.965986638903	612.862846753578	998.995911759244	957.355220394887	343.460666851932	1053.943622451371	721.404430598817	585.751560517408	954.555611932983	626.069021014561	655.574093916640	1007.973540713032	561.568226984062	570.968253065681	988.984051965431	476.668090018430	576.937372650231	1076.637316875032	764.975685618472	367.687041432901	1008.009356005446	637.078069007143	305.105489442863	1112.977040620512	574.787470457377	358.584087949656	1130.351993306292	506.226022921683	359.637029100052	1108.879550376877	433.052086844815	350.328721403190	1028.332716064172	310.632128863752	302.218967974403	1104.440521261452	202.660424336674	355.539276055768	948.719355386304	393.468760302073	585.848488298884	866.138983576376	300.109184488703	651.247316572866	891.178014786295	200.964325891395	585.155075535013	740.763015128419	44.233329540752	553.716098224285	910.897997648244	95.658299769268	594.878975676990	821.310532077347	36.358872296316	631.164684959750	1030.044548030945	41.046752312667	626.743466804728	1000.770057621474	40.090252568230	396.882644049333	1071.789386263873	37.046089152328	314.153474615918	1154.690457338631	99.845914102567	336.128925803992	1282.042626540229	50.454966352446	303.742703972563	830.875715897930	1083.977857583654	251.445809857688	830.317431055001	823.444517461402	248.245330702877	1183.804556075510	1128.154802945141	757.662148084025	1406.034354532252	1201.320072426724	665.773167388793	
126	47.896428571429	815.592795009476	1000.951802199550	535.938262653435	948.216204648641	1425.712067919193	319.922392551487	1083.649578162883	1362.745589038060	456.960476699035	1037.290809167238	1438.078176465676	643.626034741830	963.931983561296	1489.505712801820	473.753493241220	1060.248210348564	933.712555212913	611.012020686992	1000.465292512112	957.037317765071	341.655111276233	1054.951070633724	721.004054406554	584.278385984917	955.113255838608	625.763397981726	653.807843728813	1008.748598257262	560.881012794395	569.577247883946	989.480466757636	475.288459491913	575.654578535792	1077.609236296682	763.619993220392	366.333671754568	1007.884794928734	636.249932650201	304.450756152769	1112.357894171194	573.545868514265	358.377457292907	1128.439577614442	504.396310893846	359.997852255863	1106.657030721233	431.124909941323	350.520731362908	1025.269029142685	309.385077418014	302.318362647468	1099.563099222473	200.757883309624	356.478762036527	947.779497405986	392.690692680333	584.788891132643	863.858193184866	300.739555885227	650.619915326294	887.546247928076	200.987773901140	584.989068000090	735.388590732378	45.283700478923	554.147140656282	905.857164247213	95.803308055872	595.133154564300	816.038607230181	36.614621529902	631.342714893565	1024.780579030211	40.623641771141	626.821298974374	993.774709211513	39.127070350157	397.452310857967	1064.789945669560	36.449176035665	314.617826683445	1148.082154037517	98.405180149569	337.356714313653	1275.371399330029	48.265060144264	304.489719662840	833.796358935043	1082.796887404077	247.412160459893	834.691426147830	822.210019587181	243.461343345658	1180.926305565094	1126.276186957945	755.475987779969	1405.745843229064	1193.027965127061	663.779417832226	
127	47.910000000000	816.119012438355	1000.916695002604	533.044929707087	949.390260681119	1425.302197823084	316.948929751027	1084.397903444399	1362.760259914871	454.608911763666	1037.210715877064	1438.366215754718	641.000795417173	964.430986874603	1489.429526266704	470.841119183803	1060.900000195914	933.690363461417	608.974605758153	1001.783193730744	957.071407315845	339.628415270809	1056.004060148191	720.866839096721	582.600743328319	955.964750313232	625.605760611044	651.904144039461	1009.988888234062	560.383708268312	568.079661099515	990.600356626280	473.937568610591	574.448302173252	1078.512563690339	762.788572169405	365.008628169879	1008.127380753998	635.969179074772	303.473428125695	1111.861897688242	572.754456629091	358.045923871300	1126.740198537477	503.094593670410	360.111549894801	1104.720826621238	429.741379831950	350.457415350738	1022.766042714540	308.623332718048	301.936217393125	1095.192046645763	199.429934425717	357.097309628911	947.297446062957	392.000408064748	583.763993674112	861.870322442482	301.617466122926	649.951554247854	884.160381802266	201.209204152301	584.887731027766	730.070704959619	46.793637637457	554.625188665442	900.990078669534	96.039585526352	595.464105264752	810.827989135230	37.057581252205	631.549651111656	1019.565041507070	40.157808669027	626.904565581766	987.438504167640	38.499067514560	397.644858701665	1058.532480227442	36.154887579598	314.802380139892	1142.049731681911	97.534659383274	338.205965397788	1269.360986401622	46.853849913283	305.069630689530	837.360272794694	1081.723033979994	243.113649929340	839.992950974676	821.083094702598	238.383669801339	1177.610875228536	1124.525509924586	753.479343078849	1405.394306093522	1183.089989166877	662.165501355510	
128	47.923571428571	816.562128022436	1001.161569322738	530.010398538897	950.680451365795	1425.190093760453	313.950315459990	1085.219605166469	1362.960626114482	452.223106330330	1037.265690152083	1438.916806148288	638.308719179856	965.046724749038	1489.611652968177	467.895337202108	1061.383220707082	933.913532025480	606.754310612139	1002.964835789789	957.435610996335	337.355996517944	1057.055640676342	721.012965011363	580.728929707856	957.097063307436	625.616191561256	649.902617801166	1011.703787644889	560.105292101904	566.519035052017	992.381527984018	472.640109131689	573.410621238280	1079.343394394272	762.462880246962	363.628538589364	1008.621131049035	636.143069041766	302.178581133064	1111.411782827185	572.324485141484	357.494741591949	1125.177667970470	502.243104926143	359.940875493268	1102.977837154307	428.828821089162	350.149359125678	1020.670241298023	308.272883724637	301.158339433025	1091.220484914116	198.604667600240	357.436337127320	947.312143051455	391.425276530313	582.838288519957	860.202248006607	302.776475862623	649.272089608996	881.058983599345	201.668435745498	584.878901283134	724.845469338973	48.850741418407	555.141459819120	896.329916968413	96.378104356340	595.876749043913	805.688923819838	37.749979230958	631.784225722044	1014.389082947154	39.659754570162	626.990244278581	981.671153057260	38.174573986403	397.570849531289	1052.884824061384	36.089469397404	314.783801835913	1136.511714157049	97.115618662986	338.712226731091	1263.890008388031	46.041582861677	305.456283849951	841.502195029232	1080.822061602800	238.581871233258	846.226488941694	820.141854131422	233.050629999257	1173.909789161708	1122.937997828532	751.631583497197	1404.837318250819	1171.489265092531	660.944036500321	
